<mxfile host="65bd71144e">
    <diagram name="페이지-1" id="qJgsSUgqb1jlQC-jZucj">
        <mxGraphModel dx="572" dy="668" grid="1" gridSize="10" guides="1" tooltips="1" connect="1" arrows="1" fold="1" page="1" pageScale="1" pageWidth="850" pageHeight="1100" math="0" shadow="0">
            <root>
                <mxCell id="0"/>
                <mxCell id="1" parent="0"/>
                <mxCell id="2" value="" style="rounded=1;whiteSpace=wrap;html=1;fontSize=15;fillColor=none;" parent="1" vertex="1">
                    <mxGeometry x="145" y="410" width="355" height="280" as="geometry"/>
                </mxCell>
                <mxCell id="UNXM5yMI1ZM7ZV7I5fsq-15" value="RequestQueue&amp;nbsp; &amp;nbsp; &amp;nbsp;" style="strokeWidth=2;html=1;shape=mxgraph.flowchart.direct_data;whiteSpace=wrap;fontSize=15;" parent="1" vertex="1">
                    <mxGeometry x="165" y="520" width="145" height="60" as="geometry"/>
                </mxCell>
                <mxCell id="UNXM5yMI1ZM7ZV7I5fsq-16" value="" style="endArrow=classic;html=1;rounded=0;entryX=0;entryY=0.5;entryDx=0;entryDy=0;entryPerimeter=0;fontSize=15;" parent="1" target="UNXM5yMI1ZM7ZV7I5fsq-15" edge="1">
                    <mxGeometry width="50" height="50" relative="1" as="geometry">
                        <mxPoint x="100" y="550" as="sourcePoint"/>
                        <mxPoint x="115" y="610" as="targetPoint"/>
                    </mxGeometry>
                </mxCell>
                <mxCell id="UNXM5yMI1ZM7ZV7I5fsq-17" value="Worker" style="rounded=1;whiteSpace=wrap;html=1;fontSize=15;" parent="1" vertex="1">
                    <mxGeometry x="365" y="430" width="120" height="60" as="geometry"/>
                </mxCell>
                <mxCell id="UNXM5yMI1ZM7ZV7I5fsq-18" value="" style="endArrow=classic;html=1;rounded=0;entryX=0;entryY=0.5;entryDx=0;entryDy=0;exitX=0.9;exitY=0.5;exitDx=0;exitDy=0;exitPerimeter=0;fontSize=15;" parent="1" source="UNXM5yMI1ZM7ZV7I5fsq-15" target="UNXM5yMI1ZM7ZV7I5fsq-17" edge="1">
                    <mxGeometry width="50" height="50" relative="1" as="geometry">
                        <mxPoint x="95" y="560" as="sourcePoint"/>
                        <mxPoint x="175" y="560" as="targetPoint"/>
                    </mxGeometry>
                </mxCell>
                <mxCell id="UNXM5yMI1ZM7ZV7I5fsq-19" value="Worker" style="rounded=1;whiteSpace=wrap;html=1;fontSize=15;" parent="1" vertex="1">
                    <mxGeometry x="365" y="520" width="120" height="60" as="geometry"/>
                </mxCell>
                <mxCell id="UNXM5yMI1ZM7ZV7I5fsq-20" value="Worker" style="rounded=1;whiteSpace=wrap;html=1;fontSize=15;" parent="1" vertex="1">
                    <mxGeometry x="365" y="610" width="120" height="60" as="geometry"/>
                </mxCell>
                <mxCell id="SKWY_q-Q1LM-eMBOjH63-1" value="ResponseQueue&amp;nbsp; &amp;nbsp; &amp;nbsp;&amp;nbsp;" style="strokeWidth=2;html=1;shape=mxgraph.flowchart.direct_data;whiteSpace=wrap;fontSize=15;" parent="1" vertex="1">
                    <mxGeometry x="590" y="520" width="160" height="60" as="geometry"/>
                </mxCell>
                <mxCell id="SKWY_q-Q1LM-eMBOjH63-2" value="" style="endArrow=classic;html=1;rounded=0;entryX=0;entryY=0.5;entryDx=0;entryDy=0;exitX=1;exitY=0.5;exitDx=0;exitDy=0;entryPerimeter=0;fontSize=15;" parent="1" source="UNXM5yMI1ZM7ZV7I5fsq-17" target="SKWY_q-Q1LM-eMBOjH63-1" edge="1">
                    <mxGeometry width="50" height="50" relative="1" as="geometry">
                        <mxPoint x="265" y="560" as="sourcePoint"/>
                        <mxPoint x="375" y="470" as="targetPoint"/>
                    </mxGeometry>
                </mxCell>
                <mxCell id="SKWY_q-Q1LM-eMBOjH63-3" value="" style="endArrow=classic;html=1;rounded=0;fontSize=15;" parent="1" edge="1">
                    <mxGeometry width="50" height="50" relative="1" as="geometry">
                        <mxPoint x="740" y="550" as="sourcePoint"/>
                        <mxPoint x="800" y="550" as="targetPoint"/>
                        <Array as="points"/>
                    </mxGeometry>
                </mxCell>
            </root>
        </mxGraphModel>
    </diagram>
</mxfile>